<svg width="66" height="66" viewBox="0 0 66 66" fill="none" xmlns="http://www.w3.org/2000/svg">
<g filter="url(#filter0_d_24_336)">
<rect x="10" y="4" width="46" height="46" rx="4" fill="white"/>
</g>
<path fill-rule="evenodd" clip-rule="evenodd" d="M41.2548 18.0513C41.1365 18.0824 40.8813 18.1708 40.6877 18.2476C40.4941 18.3244 36.6577 19.8165 32.1623 21.5634C27.6669 23.3103 23.9105 24.7748 23.8147 24.818C23.016 25.1777 22.7595 25.9351 23.2476 26.4921C23.3392 26.5965 23.4994 26.7294 23.6037 26.7872C23.708 26.845 24.6469 27.2119 25.69 27.6024C26.7332 27.993 27.6077 28.3331 27.6332 28.3583C27.6587 28.3835 28.1123 29.4242 28.6411 30.6709C29.1699 31.9176 29.6417 33.0273 29.6896 33.1368C29.7982 33.385 30.1495 33.757 30.3843 33.8724C30.8012 34.0773 31.2531 34.0655 31.7035 33.838C31.9652 33.7059 32.0687 33.6154 33.0929 32.6236C33.4541 32.2738 33.7709 31.9961 33.7968 32.0065C33.8227 32.0169 34.7326 32.6534 35.8188 33.4209C36.9051 34.1884 37.8854 34.8595 37.9973 34.9122C38.8079 35.2938 39.6437 34.9798 40.0231 34.1512C40.1414 33.8927 40.3138 33.0802 41.5742 26.8395C43.1226 19.1731 43.0886 19.3738 42.923 18.885C42.6969 18.2178 41.9812 17.8601 41.2548 18.0513ZM41.7944 19.2449C41.8203 19.2713 41.8414 19.3494 41.8414 19.4183C41.8414 19.4871 41.5503 20.9865 41.1944 22.7502C40.8386 24.5138 40.2043 27.6609 39.7849 29.7435C39.3654 31.8262 38.9962 33.5817 38.9645 33.6447C38.8692 33.8338 38.7361 33.9007 38.5644 33.8458C38.4847 33.8203 37.6276 33.2393 36.6597 32.5546C35.6917 31.87 34.1748 30.8005 33.2888 30.1779C32.4027 29.5554 31.6812 29.0348 31.6854 29.021C31.6896 29.0072 33.0041 27.7639 34.6065 26.258C37.9552 23.1111 38.0715 22.9974 38.1299 22.8161C38.2519 22.4368 37.9101 22.0084 37.5233 22.0559C37.4213 22.0684 37.1021 22.2203 36.6401 22.4761C35.8811 22.8962 30.5424 25.8336 28.9905 26.6848C28.4935 26.9574 28.0613 27.1805 28.0301 27.1805C27.9989 27.1805 27.7632 27.1013 27.5063 27.0044C27.2495 26.9075 26.4761 26.6165 25.7878 26.3577C25.0995 26.0988 24.5241 25.8756 24.509 25.8617C24.4939 25.8479 27.8464 24.5287 31.959 22.9303C36.0715 21.3319 39.887 19.8488 40.4378 19.6345C41.6668 19.1564 41.6992 19.1471 41.7944 19.2449ZM33.6274 25.5495C33.5959 25.5792 32.831 26.2981 31.9277 27.1471C31.0243 27.9961 30.2588 28.7238 30.2266 28.7641C30.1801 28.8224 30.162 29.0374 30.1393 29.8044C30.1236 30.3362 30.1059 30.8368 30.1001 30.917C30.0912 31.0409 29.9961 30.8427 29.4659 29.5957C29.1229 28.7888 28.8589 28.1219 28.8793 28.1138C28.8997 28.1056 29.9723 27.5145 31.2628 26.8003C32.5534 26.0861 33.6263 25.5004 33.647 25.4986C33.6677 25.4969 33.6589 25.5198 33.6274 25.5495ZM32.0435 30.7546C32.4205 31.0213 32.7365 31.2521 32.7458 31.2675C32.7617 31.2939 31.3881 32.6415 31.316 32.6702C31.2975 32.6776 31.2824 32.1404 31.2824 31.4766C31.2824 30.7262 31.2967 30.2697 31.3202 30.2697C31.341 30.2697 31.6665 30.4879 32.0435 30.7546Z" fill="#25A8E3"/>
<defs>
<filter id="filter0_d_24_336" x="0" y="0" width="66" height="66" filterUnits="userSpaceOnUse" color-interpolation-filters="sRGB">
<feFlood flood-opacity="0" result="BackgroundImageFix"/>
<feColorMatrix in="SourceAlpha" type="matrix" values="0 0 0 0 0 0 0 0 0 0 0 0 0 0 0 0 0 0 127 0" result="hardAlpha"/>
<feOffset dy="6"/>
<feGaussianBlur stdDeviation="5"/>
<feColorMatrix type="matrix" values="0 0 0 0 0.786806 0 0 0 0 0.823167 0 0 0 0 0.916667 0 0 0 0.4 0"/>
<feBlend mode="normal" in2="BackgroundImageFix" result="effect1_dropShadow_24_336"/>
<feBlend mode="normal" in="SourceGraphic" in2="effect1_dropShadow_24_336" result="shape"/>
</filter>
</defs>
</svg>
