<svg width="66" height="66" viewBox="0 0 66 66" fill="none" xmlns="http://www.w3.org/2000/svg">
<g filter="url(#filter0_d_24_328)">
<rect x="10" y="4" width="46" height="46" rx="4" fill="white"/>
</g>
<g clip-path="url(#clip0_24_328)">
<path d="M39.3401 20.6139C37.6476 18.9293 35.396 18.0009 32.9996 18C30.6086 18 28.3534 18.9275 26.6497 20.6117C24.943 22.2988 24.0022 24.5409 24 26.9166V26.9194V26.921C24.0003 28.359 24.3784 29.8096 25.0962 31.1337L24.0246 36L28.9516 34.8803C30.1995 35.5086 31.5918 35.8399 32.9962 35.8404H32.9998C35.3904 35.8404 37.6455 34.9128 39.3495 33.2284C41.0577 31.54 41.9989 29.3008 42 26.9235C42.0007 24.563 41.0562 22.3221 39.3401 20.6139ZM32.9996 34.4355H32.9964C31.7355 34.435 30.4861 34.1187 29.3835 33.5207L29.1505 33.3943L25.8743 34.1388L26.5859 30.9077L26.4487 30.6714C25.7666 29.4962 25.4062 28.199 25.4062 26.9195C25.4088 22.7781 28.8148 19.4049 32.9993 19.4049C35.0208 19.4057 36.9202 20.1886 38.3476 21.6091C39.7966 23.0516 40.5943 24.9388 40.5936 26.9231C40.592 31.0655 37.1853 34.4355 32.9996 34.4355Z" fill="#40AC69"/>
<path d="M30.5507 22.9875H30.1562C30.0189 22.9875 29.7959 23.0389 29.6073 23.2439C29.4186 23.4491 28.8867 23.945 28.8867 24.9536C28.8867 25.9621 29.6245 26.9366 29.7273 27.0735C29.8303 27.2103 31.1514 29.346 33.2439 30.1677C34.9829 30.8505 35.3369 30.7147 35.7142 30.6805C36.0916 30.6464 36.9322 30.1847 37.1037 29.7061C37.2753 29.2275 37.2753 28.8172 37.2239 28.7315C37.1723 28.646 37.035 28.5948 36.8292 28.4924C36.6233 28.3898 35.6144 27.8855 35.4256 27.817C35.2369 27.7488 35.0997 27.7145 34.9624 27.9199C34.825 28.1248 34.4207 28.5988 34.3006 28.7356C34.1806 28.8725 34.0605 28.8897 33.8545 28.7871C33.6486 28.6842 32.9924 28.464 32.206 27.7658C31.5938 27.2224 31.1691 26.5294 31.0489 26.3242C30.9289 26.1192 31.0362 26.0082 31.1394 25.9059C31.2319 25.8142 31.3569 25.6887 31.4598 25.5691C31.5626 25.4493 31.5919 25.3639 31.6606 25.2271C31.7292 25.0903 31.6949 24.9706 31.6434 24.8681C31.5919 24.7655 31.1968 23.7519 31.0137 23.3465H31.0139C30.8598 23.0051 30.6974 22.9936 30.5507 22.9875Z" fill="#40AC69"/>
</g>
<defs>
<filter id="filter0_d_24_328" x="0" y="0" width="66" height="66" filterUnits="userSpaceOnUse" color-interpolation-filters="sRGB">
<feFlood flood-opacity="0" result="BackgroundImageFix"/>
<feColorMatrix in="SourceAlpha" type="matrix" values="0 0 0 0 0 0 0 0 0 0 0 0 0 0 0 0 0 0 127 0" result="hardAlpha"/>
<feOffset dy="6"/>
<feGaussianBlur stdDeviation="5"/>
<feColorMatrix type="matrix" values="0 0 0 0 0.786806 0 0 0 0 0.823167 0 0 0 0 0.916667 0 0 0 0.4 0"/>
<feBlend mode="normal" in2="BackgroundImageFix" result="effect1_dropShadow_24_328"/>
<feBlend mode="normal" in="SourceGraphic" in2="effect1_dropShadow_24_328" result="shape"/>
</filter>
<clipPath id="clip0_24_328">
<rect width="18" height="18" fill="white" transform="translate(24 18)"/>
</clipPath>
</defs>
</svg>
